<?xml version="1.0" standalone="no"?>
<!DOCTYPE svg PUBLIC "-//W3C//DTD SVG 20010904//EN"
 "http://www.w3.org/TR/2001/REC-SVG-20010904/DTD/svg10.dtd">
<svg version="1.0" xmlns="http://www.w3.org/2000/svg"
 width="587.000000pt" height="587.000000pt" viewBox="0 0 587.000000 587.000000"
 preserveAspectRatio="xMidYMid meet">
<metadata>
Created by potrace 1.14, written by Peter Selinger 2001-2017
</metadata>
<g transform="translate(0.000000,587.000000) scale(0.100000,-0.100000)"
fill="#000000" stroke="none">
<path d="M0 4313 l0 -1238 51 -30 c111 -66 222 -221 254 -356 17 -76 19 -187
4 -261 -28 -139 -144 -306 -258 -373 l-51 -30 0 -543 0 -543 22 -42 c19 -35
23 -58 23 -137 0 -79 -4 -102 -23 -137 -20 -38 -22 -57 -22 -173 l0 -130 1965
0 1965 0 -39 49 c-75 96 -111 199 -111 321 0 141 48 256 148 359 34 35 61 65
60 66 -2 1 -34 10 -71 20 -77 20 -205 79 -275 127 -169 115 -304 303 -369 515
-25 81 -27 102 -27 253 0 151 2 172 27 253 52 168 134 303 253 418 115 109
233 177 391 226 81 25 102 27 253 27 151 0 172 -2 253 -27 168 -52 303 -134
418 -253 109 -115 177 -233 226 -391 25 -81 27 -102 27 -253 0 -151 -2 -172
-27 -253 -52 -168 -134 -303 -253 -418 -81 -77 -132 -113 -233 -163 l-74 -38
62 -39 c253 -166 308 -511 120 -750 l-39 -49 610 0 610 0 -1 748 0 747 -62 46
c-123 91 -232 251 -277 409 -30 105 -37 272 -16 370 9 41 19 87 22 101 5 22 1
28 -27 40 -63 25 -191 132 -251 207 -71 89 -130 203 -160 309 -33 113 -33 333
0 446 95 331 380 575 713 613 l59 7 0 593 0 594 -277 0 -276 0 39 -28 c57 -42
126 -122 161 -188 85 -160 85 -367 0 -529 -41 -78 -154 -191 -232 -232 -119
-62 -279 -81 -409 -47 -194 50 -364 226 -405 420 l-13 61 -55 12 c-99 23 -208
86 -292 170 -86 86 -134 167 -167 281 l-22 75 -299 3 -299 2 -13 -50 c-43
-168 -224 -300 -411 -300 -187 0 -368 132 -411 300 l-13 50 -1238 0 -1238 0 0
-1237z m714 442 c243 -63 416 -286 416 -535 0 -303 -247 -550 -550 -550 -303
0 -550 247 -550 550 0 247 172 470 411 534 72 19 201 20 273 1z m1601 -105
c132 -42 222 -96 321 -195 74 -74 99 -106 135 -180 25 -49 54 -121 64 -160 10
-38 19 -71 19 -72 1 -1 33 9 71 23 122 41 284 30 396 -27 l37 -18 6 34 c13 70
74 169 143 237 107 103 217 148 363 148 145 0 256 -45 361 -147 108 -104 159
-224 159 -373 0 -146 -45 -256 -148 -363 -113 -116 -238 -164 -407 -154 -81 4
-114 12 -206 51 -13 6 -18 0 -23 -28 -11 -57 -74 -172 -126 -228 -167 -183
-450 -222 -665 -93 -33 20 -75 51 -94 68 -31 30 -105 133 -114 160 -2 7 -23
-3 -53 -25 -66 -48 -154 -91 -244 -120 -63 -19 -96 -23 -210 -23 -156 0 -228
17 -365 88 -112 58 -244 190 -302 302 -71 137 -88 209 -88 365 0 156 17 228
88 365 58 112 190 245 302 302 148 75 227 93 390 89 88 -3 138 -10 190 -26z
m-1056 -1159 c110 -34 214 -119 273 -221 78 -134 78 -326 0 -460 -161 -278
-537 -324 -754 -92 -88 94 -128 194 -128 322 0 165 81 310 221 401 107 68 264
89 388 50z m742 -1775 c57 -31 140 -48 199 -40 47 6 47 6 114 -57 109 -102
156 -206 156 -348 0 -133 -38 -229 -129 -324 -97 -102 -202 -147 -341 -147
-139 0 -244 45 -341 147 -90 94 -129 191 -129 323 0 132 39 229 129 323 64 67
117 102 199 128 76 24 92 23 143 -5z m-863 -341 c60 -33 110 -84 144 -147 19
-36 23 -58 23 -138 0 -86 -3 -100 -29 -148 -34 -60 -85 -111 -148 -144 -36
-19 -58 -23 -138 -23 -80 0 -102 4 -138 23 -63 33 -114 84 -148 144 -26 48
-29 62 -29 148 0 79 4 102 23 137 67 127 168 186 307 180 66 -3 90 -8 133 -32z"/>
</g>
</svg>
